<svg version="1.2" xmlns="http://www.w3.org/2000/svg" viewBox="0 0 500 500" width="500" height="500">
	<title>FULL_OUGDA_Logo-16-svg</title>
	<style>
		.s0 { fill: #7d7d7d } 
		.s1 { fill: #cbcbcb } 
		.s2 { fill: #8c1619;stroke: #ffffff;stroke-miterlimit:10;stroke-width: 7 } 
		.s3 { fill: #ffffff } 
	</style>
	<g id="Layer">
		<g id="Layer_14">
			<path id="Layer" fill-rule="evenodd" class="s0" d="m389.2 94.3l0.7 5.1 0.2 0.1-6.4 15.1v0.1l-20.5-3.3q-1.1 1.4-2.3 2.8-1.2 1.4-2.5 2.7-1.2 1.2-2.6 2.4-1.4 1.2-2.8 2.3l3 20.5 0.1 0.1h-0.1l-14.9 6.4h-0.1l-12.3-16.8q-1.8 0.3-3.6 0.5-1.8 0.1-3.6 0.1-1.8 0-3.6 0-1.8-0.1-3.6-0.4l-11.9 17v0.2l-15.2-5.9-0.9-5.2 3.5-15.6q-1.7-1.2-3.2-2.5-1.6-1.3-3.1-2.8-1.4-1.4-2.8-3-1.3-1.5-2.6-3.1l-20.1 3.2h-0.2l-6.3-15.1-0.9-5.2 17.4-7.5q-0.3-2-0.4-4.1-0.2-2-0.2-4.1 0-2.1 0.2-4.1 0.2-2.1 0.5-4.1l-16.3-12.6h-0.2l-0.7-5.1 7.1-10v-0.1l20.6 3.5q1.1-1.4 2.3-2.8 1.2-1.4 2.4-2.7 1.3-1.3 2.7-2.5 1.3-1.2 2.8-2.3l-3.2-20.4-0.1-0.2 15-6.4 12.5 16.8q1.7-0.3 3.5-0.5 1.8-0.1 3.6-0.1 1.8-0.1 3.6 0 1.8 0.1 3.6 0.4l11.8-17 0.1-0.2 14.3 0.7 0.8 5.2-2.5 20.8q1.7 1.2 3.2 2.5 1.6 1.3 3 2.8 1.5 1.4 2.8 2.9 1.4 1.6 2.6 3.2h0.1l20.3-3.1 0.1-0.1 5.5 10 0.8 5.2-16.6 12.5q0.3 2.1 0.4 4.1 0.2 2.1 0.1 4.1 0 2.1-0.1 4.1-0.2 2.1-0.5 4.1h0.1zm-60 2.3c2.6-1.1 5-2.8 7.1-4.8 2-2.1 3.6-4.5 4.7-7.1 1-2.7 1.6-5.5 1.6-8.4 0-8.9-5.4-17-13.6-20.4-8.3-3.3-17.8-1.4-24 4.9-6.3 6.4-8.1 15.9-4.7 24.1 3.5 8.2 11.6 13.5 20.5 13.4 2.9 0 5.7-0.6 8.4-1.7z"/>
			<path id="Layer" fill-rule="evenodd" class="s1" d="m388.9 94.4h0.2l-6.4 15.1-20.4-3.3h-0.1q-1.1 1.5-2.3 2.9-1.2 1.3-2.4 2.6-1.3 1.3-2.7 2.5-1.3 1.2-2.8 2.3l3.1 20.5 0.1 0.2-14.9 6.4-12.4-16.8q-1.8 0.3-3.6 0.4-1.8 0.2-3.6 0.2-1.8 0-3.6-0.1-1.8-0.1-3.6-0.3l-11.9 16.9v0.2h-0.1l-15.1-6 2.6-20.8q-1.7-1.2-3.2-2.5-1.6-1.3-3-2.8-1.5-1.4-2.8-3-1.3-1.5-2.6-3.1l-20.1 3.1-0.2 0.1-6.3-15.1 16.5-12.6q-0.3-2.1-0.5-4.1-0.1-2.1-0.1-4.1 0-2.1 0.2-4.1 0.1-2.1 0.5-4.1l-16.3-12.6-0.2-0.1 6.4-15.1 20.4 3.4q1.1-1.5 2.3-2.8 1.1-1.4 2.4-2.7 1.3-1.3 2.7-2.5 1.3-1.2 2.8-2.3l-3.2-20.5-0.1-0.1h0.1l14.9-6.4 12.5 16.8q1.8-0.3 3.6-0.5 1.8-0.1 3.6-0.1 1.8-0.1 3.6 0 1.8 0.1 3.5 0.4l11.8-17 0.1-0.2 15.1 5.9-2.5 20.8q1.7 1.2 3.2 2.6 1.6 1.3 3.1 2.7 1.4 1.4 2.8 3 1.3 1.5 2.5 3.1h0.1l20.3-3.1 0.2-0.1 6.2 15.2-16.5 12.5h-0.1q0.3 2 0.5 4.1 0.1 2.1 0.1 4.1 0 2.1-0.2 4.1-0.1 2.1-0.5 4.1h0.1zm-60.5-3c2.6-1.1 5-2.7 7-4.8 2.1-2 3.7-4.4 4.7-7.1 1.1-2.6 1.7-5.5 1.7-8.4 0-8.9-5.4-16.9-13.7-20.3-8.2-3.4-17.7-1.5-24 4.9-6.2 6.3-8.1 15.8-4.6 24 3.5 8.2 11.6 13.5 20.5 13.4 2.9 0 5.7-0.6 8.4-1.7z"/>
			<path id="Layer" fill-rule="evenodd" class="s0" d="m164.6 218.7l0.7 5.1 0.2 0.1-6.4 15.3-20.4-3.3q-1.1 1.5-2.3 2.9-1.2 1.3-2.4 2.6-1.3 1.3-2.7 2.5-1.3 1.3-2.8 2.4l3.1 20.8 0.1 0.2h-0.1l-14.8 6.4h-0.1l-12.3-17q-1.8 0.3-3.6 0.4-1.8 0.2-3.6 0.2-1.8 0-3.6-0.1-1.8-0.1-3.5-0.3l-11.9 17.2-0.1 0.2-15-6-0.9-5.3 3.5-15.9q-1.7-1.2-3.3-2.6-1.5-1.3-3-2.8-1.4-1.4-2.8-3-1.3-1.6-2.5-3.2l-20.1 3.2-0.2 0.1-6.3-15.3-0.8-5.3 17.2-7.5q-0.3-2.1-0.4-4.1-0.2-2.1-0.2-4.2 0.1-2.1 0.2-4.2 0.2-2.1 0.5-4.1l-16.2-12.8-0.2-0.1-0.6-5.1 7-10.2 20.3 3.4q1.1-1.5 2.3-2.9 1.2-1.4 2.5-2.7 1.3-1.3 2.7-2.5 1.3-1.3 2.8-2.4l-3.2-20.7v-0.2l14.9-6.5 12.4 17q1.8-0.2 3.6-0.4 1.7-0.1 3.5-0.2 1.8 0 3.6 0.1 1.8 0.1 3.6 0.3l11.8-17.1 0.1-0.2 14.2 0.7 0.8 5.3-2.5 21.1q1.7 1.2 3.3 2.6 1.5 1.3 3 2.8 1.4 1.5 2.8 3 1.3 1.6 2.5 3.3h0.1l20.2-3.2 0.2-0.1 5.4 10.1 0.9 5.3-16.5 12.7h-0.1q0.3 2 0.4 4.1 0.2 2.1 0.2 4.2-0.1 2.1-0.2 4.2-0.2 2-0.5 4.1h0.1zm-46.3-18.4c0-12.3-9.7-22.3-21.7-22.3-12 0-21.7 10-21.7 22.3 0 12.3 9.7 22.3 21.7 22.3 12 0 21.7-10 21.7-22.3z"/>
			<path id="Layer" fill-rule="evenodd" class="s1" d="m164.6 218.6h0.1v0.1l-6.3 15.2-20.4-3.3h-0.1q-1.1 1.5-2.2 2.9-1.2 1.4-2.5 2.7-1.3 1.3-2.6 2.5-1.4 1.2-2.8 2.3l3 20.8 0.1 0.2-14.9 6.4-12.4-17q-1.8 0.3-3.6 0.5-1.7 0.1-3.5 0.1-1.8 0.1-3.6 0-1.8-0.1-3.6-0.4l-11.9 17.1-0.1 0.2-15-6 2.5-21q-1.6-1.2-3.2-2.6-1.6-1.3-3-2.8-1.5-1.4-2.9-3-1.3-1.5-2.5-3.2l-20.1 3.2-0.2 0.1-6.3-15.4 16.5-12.7q-0.3-2.1-0.5-4.2-0.1-2-0.1-4.1 0-2.1 0.2-4.2 0.1-2.1 0.5-4.1l-16.3-12.8h-0.1v-0.1l6.3-15.4 20.4 3.4q1-1.5 2.2-2.9 1.2-1.3 2.5-2.7 1.3-1.3 2.6-2.5 1.4-1.2 2.9-2.3l-3.2-20.8-0.1-0.2h0.1l14.9-6.4 12.4 17q1.8-0.3 3.6-0.4 1.8-0.2 3.6-0.2 1.8 0 3.5 0.1 1.8 0.1 3.6 0.3l11.8-17.1v-0.2l15.1 6h0.1l-2.5 21.1q1.7 1.2 3.2 2.5 1.6 1.4 3 2.8 1.5 1.5 2.8 3 1.4 1.6 2.6 3.2l20.3-3.1 0.1-0.1 6.3 15.3v0.1l-16.5 12.7h-0.1q0.3 2.1 0.5 4.1 0.1 2.1 0.1 4.2 0 2.1-0.2 4.2-0.1 2.1-0.4 4.1zm-47.1-23.5c0-12.4-9.7-22.4-21.7-22.4-12 0-21.7 10-21.7 22.4 0 12.3 9.7 22.3 21.7 22.3 12 0 21.7-10 21.7-22.3z"/>
			<path id="Layer" fill-rule="evenodd" class="s0" d="m471.5 219l0.7 5.1 0.2 0.1-6.4 15.3-20.5-3.3h-0.1q-1.1 1.5-2.3 2.8-1.1 1.4-2.4 2.7-1.3 1.3-2.6 2.5-1.4 1.3-2.8 2.4l3.1 20.8v0.2l-14.9 6.4-12.3-17q-1.8 0.3-3.6 0.4-1.8 0.2-3.6 0.2-1.8 0-3.6-0.1-1.7-0.1-3.5-0.3l-11.9 17.2v0.2h-0.1l-15-6-0.9-5.3 3.7-16q-1.7-1.2-3.3-2.6-1.5-1.3-3-2.8-1.5-1.4-2.8-3-1.3-1.6-2.6-3.2l-20.1 3.2-0.1 0.1-6.3-15.3-0.8-5.3 17.2-7.5q-0.3-2.1-0.4-4.1-0.2-2.1-0.2-4.2 0.1-2.1 0.2-4.2 0.2-2.1 0.5-4.1l-16.2-12.8h-0.2l-0.7-5.2 7.1-10.1 20.3 3.4q1.1-1.5 2.3-2.9 1.1-1.3 2.4-2.7 1.3-1.3 2.6-2.5 1.4-1.2 2.9-2.3l-3.2-20.8-0.1-0.2 14.9-6.4 12.5 17q1.7-0.3 3.5-0.4 1.8-0.2 3.6-0.2 1.8 0 3.6 0.1 1.8 0.1 3.6 0.3l11.7-17.2 0.1-0.2 14.2 0.8 0.9 5.2-2.6 21.1q1.7 1.3 3.3 2.6 1.5 1.3 3 2.8 1.4 1.4 2.7 3 1.4 1.5 2.6 3.2h0.1l20.2-3.2 0.2-0.1v0.1l5.4 10.1 0.8 5.2-16.4 12.8h-0.1q0.3 2 0.4 4.1 0.2 2.1 0.2 4.2 0 2.1-0.2 4.2-0.2 2-0.5 4.1h0.1zm-46.4-18.4c0-12.3-9.7-22.3-21.7-22.3-12 0-21.7 10-21.7 22.3 0 12.3 9.7 22.3 21.7 22.3 12 0 21.7-10 21.7-22.3z"/>
			<path id="Layer" fill-rule="evenodd" class="s1" d="m471.2 218.9l0.2 0.1-6.3 15.3-20.5-3.3q-1.1 1.5-2.3 2.8-1.2 1.4-2.4 2.7-1.3 1.3-2.7 2.5-1.3 1.2-2.7 2.4l3 20.8 0.1 0.2-14.9 6.4-12.3-17q-1.8 0.3-3.6 0.4-1.8 0.2-3.6 0.2-1.8 0-3.6-0.1-1.7-0.1-3.5-0.3l-11.9 17-0.1 0.2-15.1-6 2.6-21q-1.6-1.2-3.2-2.5-1.6-1.4-3-2.8-1.5-1.5-2.8-3.1-1.4-1.5-2.6-3.2l-20.1 3.3h-0.2l-6.3-15.3v-0.1l16.5-12.7q-0.3-2.1-0.5-4.2-0.1-2.1-0.1-4.2 0-2 0.2-4.1 0.1-2.1 0.4-4.2l-16.2-12.7-0.2-0.1 6.4-15.3 20.3 3.3q1.1-1.4 2.3-2.8 1.2-1.4 2.4-2.7 1.3-1.3 2.7-2.5 1.3-1.3 2.8-2.4l-3.2-20.7-0.1-0.2h0.1l14.9-6.4 12.5 17q1.8-0.3 3.6-0.5 1.7-0.1 3.5-0.1 1.8-0.1 3.6 0 1.8 0.1 3.6 0.4l11.7-17.2 0.1-0.2h0.1l15 6h0.1l-2.5 21q1.6 1.2 3.2 2.6 1.6 1.3 3 2.8 1.5 1.4 2.8 3 1.3 1.5 2.5 3.2h0.1l20.2-3.1 0.2-0.1 6.3 15.4-16.5 12.7h-0.1q0.3 2.1 0.4 4.2 0.2 2 0.2 4.1 0 2.1-0.2 4.2-0.2 2.1-0.5 4.1h0.1zm-68.7-1.2c12 0 21.7-10 21.7-22.4 0-12.3-9.7-22.3-21.7-22.3-12 0-21.7 10-21.7 22.3 0 12.4 9.7 22.4 21.7 22.4z"/>
			<path id="Layer" class="s1" d="m479.7 393.8c0 0-27.2-154.6-28.8-152.5-67.2 87.2-157.6 101.8-157.6 101.8l-29.6 1v1l-56.6-2c0 0-87.9-21.6-155.1-108.8-1.6-2.2-31.3 159.5-31.3 159.5-6.2 51.8 23.1 97.9 65.5 103 13.5 1.6 26-8.8 30.3-24.1q0.7-2.8 1.6-5.5 0.9-2.7 1.8-5.4 1-2.7 2-5.4 1-2.7 2.1-5.3l14.7-38h49.9l13-22.5h105.3l13 22.5h41.8l14.7 38q1.1 2.6 2.2 5.3 1 2.7 1.9 5.4 1 2.7 1.8 5.4 0.9 2.7 1.7 5.5c4.2 15.3 16.8 25.7 30.2 24.1 42.4-5.1 71.8-51.2 65.5-103z"/>
			<path id="Layer" class="s0" d="m460.1 292.6c6.7 49.1-46.4 80.3-76.8 80.3h-266.6c-30.4 0-54.1-20.5-67.9-45.3l9.5-22.6 392.1-60.7z"/>
			<path id="Layer" class="s0" d="m40.2 292.6c-6.7 49.1 46.4 80.3 76.8 80.3h266.7c30.3 0 54.1-20.5 67.9-45.3l-9.5-22.6-392.1-60.7z"/>
			<path id="Layer" class="s2" d="m109.6 196.8h281.6c8 0 16 1.6 23.4 4.6 7.5 3.1 14.2 7.6 19.9 13.3 5.7 5.7 10.2 12.5 13.2 19.9 3.1 7.4 4.7 15.4 4.7 23.4v22.7c0 10.6-2.1 21.1-6.2 30.9-4 9.8-10 18.7-17.5 26.2-7.5 7.5-16.4 13.5-26.2 17.5-9.8 4.1-20.3 6.2-30.9 6.2h-247.1c-10 0-19.9-2-29.1-5.8-9.3-3.8-17.7-9.4-24.7-16.5-7.1-7.1-12.7-15.5-16.5-24.7-3.9-9.2-5.8-19.1-5.8-29.1v-27.4c0-8 1.6-16 4.6-23.4 3.1-7.4 7.6-14.2 13.3-19.9 5.7-5.6 12.4-10.1 19.8-13.2 7.5-3.1 15.4-4.7 23.5-4.7z"/>
			<path id="Layer" class="s3" d="m126.1 276.5v-4.8h41.2c1.6 0 3.1 0.3 4.6 1 1.5 0.6 2.8 1.4 3.9 2.6 1.2 1.1 2.1 2.4 2.7 3.9 0.6 1.5 0.9 3 0.9 4.6v51.6c-5.2 4.9-12.7-7.2-22.5-3.5q-3.6 1.4-7.3 2.4-3.7 1-7.4 1.7-3.8 0.7-7.6 1.1-3.8 0.4-7.6 0.4-19.2 0-33.5-7.9-3.5-1.8-6.6-4.2-3.2-2.4-5.9-5.2-2.8-2.9-5-6.1-2.3-3.3-4-6.8-1.8-3.7-3.2-7.6-1.3-3.8-2.2-7.8-1-4-1.4-8.1-0.4-4.1-0.4-8.2 0-18.6 8-33 2-3.6 4.5-6.8 2.6-3.2 5.5-6.1 3-2.8 6.4-5.1 3.4-2.3 7.1-4.1 11.8-5.9 29.3-5.9 22.9 0 35.7 9.2 12.8 9.3 16.5 25.7l-23.7 0.2c-1.7-5.9-5.7-7.5-9.1-9.7-4.8-3.2-12.2-4.9-19.4-4.9q-16.2 0-25.7 10-9.6 10-9.6 29.6 0 21.1 9.7 31.7 9.7 10.6 25.4 10.6 2 0 4-0.2 2-0.2 3.9-0.6 2-0.4 3.9-0.9 1.9-0.6 3.8-1.3 1.8-0.7 3.5-1.4 1.8-0.8 3.5-1.7 1.6-0.9 3.3-1.9 1.6-1.1 3.1-2.2v-15.1h-13.1c-2 0.1-4-0.3-5.9-1.1-1.8-0.8-3.5-1.9-4.9-3.3-1.4-1.4-2.5-3.1-3.3-4.9-0.8-1.9-1.2-3.9-1.1-5.9z"/>
			<path id="Layer" fill-rule="evenodd" class="s3" d="m201.5 218.2c0-1.1 0.2-2.3 0.7-3.3 0.5-1.1 1.1-2.1 1.9-2.9 0.9-0.8 1.9-1.4 2.9-1.8 1.1-0.5 2.2-0.7 3.4-0.7h37.9q15.9 0 24.2 2.7 2.8 0.8 5.4 2.1 2.6 1.3 5.1 2.9 2.4 1.6 4.6 3.5 2.1 1.9 4 4.1 2.1 2.5 3.9 5.1 1.8 2.6 3.4 5.4 1.5 2.9 2.7 5.8 1.3 3 2.2 6 4.1 13.2 4.1 32.6 0 17-3.9 29.3-4.7 15-13.6 24.3-6.6 7-18 11-8.5 2.9-22.7 2.9h-43.3q-1 0-1.9-0.4-0.9-0.3-1.6-1-0.6-0.7-1-1.6-0.4-0.8-0.4-1.8zm25.6 14.6v91.2h19.2q10.7 0 15.5-1.3 1.4-0.4 2.8-1 1.4-0.5 2.7-1.2 1.3-0.8 2.5-1.6 1.2-0.9 2.3-2 4.1-4 6.7-13.2 2.6-9.3 2.6-25.2 0-16-2.6-24.6-2.6-8.5-7.2-13.3-1.3-1.2-2.6-2.2-1.4-1.1-2.9-1.9-1.5-0.8-3.1-1.4-1.6-0.6-3.3-1-5.4-1.3-21.1-1.3z"/>
			<path id="Layer" fill-rule="evenodd" class="s3" d="m402.4 334.8l0.9-1.7q1-1.9 1.6-4.1 0.6-2.1 0.7-4.4 0.1-2.2-0.3-4.4-0.3-2.2-1.1-4.2l-3-7.6h-49l-12.6 27h-20q-0.6 0-1.2-0.3-0.5-0.3-0.9-0.8-0.4-0.5-0.4-1.2-0.1-0.6 0.1-1.2l45.2-112.3q0.2-0.7 0.7-1.2 0.4-0.6 1-1 0.6-0.4 1.3-0.6 0.6-0.2 1.3-0.2h14.5q1.9 0 3.7 0.6 1.8 0.5 3.4 1.6 1.6 1 2.8 2.5 1.2 1.4 1.9 3.2l33.6 81.5q0.1 0.2 0.2 0.4 0 0.1 0.1 0.3 0 0.2 0.1 0.4 0 0.2 0.1 0.3c2 11.8-23.6 30-24.7 27.4zm-9.2-46.4l-16.9-44.1-16.5 44.1z"/>
			<path id="Layer" fill-rule="evenodd" class="s0" d="m209.9 133.4l-0.5 7.5-15 14.2-16.8-9.1-18.3 7.9-13.8-15.4 0.5-7.6 8.6-10-8-19.3 0.5-7.6 14.4-6.5 18.1 9.7 17.9-7.8 14.2 7.8-0.4 7.5-9.3 18.3zm-36.6-1.8c1.3 0.6 2.8 1 4.2 1 1.5 0.1 2.9-0.1 4.2-0.7 1.4-0.5 2.6-1.2 3.7-2.2 1-1 1.9-2.2 2.4-3.6 0.6-1.3 1-2.7 1.1-4.2 0-1.5-0.2-2.9-0.7-4.3-0.5-1.4-1.2-2.7-2.2-3.7-1-1.1-2.2-2-3.5-2.7-1.3-0.6-2.7-0.9-4.2-1-1.4-0.1-2.8 0.2-4.2 0.7-1.3 0.5-2.6 1.3-3.6 2.3-1.1 1-1.9 2.2-2.5 3.5-0.6 1.3-1 2.8-1 4.2-0.1 1.5 0.1 3 0.6 4.3 0.5 1.4 1.3 2.7 2.2 3.8 1 1.1 2.2 2 3.5 2.6z"/>
			<path id="Layer" fill-rule="evenodd" class="s1" d="m209.9 133.3l-15 14.2-16.8-9.1-18.3 7.9-13.8-15.4 9-17.6-8-19.3 15-14.2 18.1 9.8 17.9-7.9 13.8 15.4-9.3 18.3zm-31.9-8.4c1.5 0.1 2.9-0.1 4.2-0.6 1.4-0.6 2.6-1.3 3.7-2.3 1-1 1.9-2.2 2.4-3.6 0.6-1.3 1-2.7 1.1-4.2 0-1.5-0.2-2.9-0.7-4.3-0.5-1.4-1.2-2.6-2.2-3.7-1-1.1-2.2-2-3.5-2.7-1.3-0.6-2.7-0.9-4.2-1-1.4-0.1-2.8 0.2-4.2 0.7-1.3 0.5-2.6 1.3-3.6 2.3-1.1 1-1.9 2.2-2.5 3.5-0.6 1.3-0.9 2.8-1 4.2-0.1 1.5 0.2 3 0.7 4.3 0.4 1.4 1.2 2.7 2.2 3.8 0.9 1.1 2.1 2 3.4 2.6 1.3 0.6 2.8 1 4.2 1z"/>
			<path id="Layer" fill-rule="evenodd" class="s0" d="m280.1 169l-0.5 7.6-15 14.2-16.8-9.1-18.3 7.9-13.8-15.4 0.5-7.6 8.6-10-8-19.3 0.5-7.6 14.4-6.6 18.1 9.7 17.9-7.8 14.3 7.8-0.5 7.6-9.3 18.3zm-36.6-1.7c1.3 0.6 2.7 0.9 4.2 1 1.4 0 2.9-0.2 4.2-0.7 1.4-0.5 2.6-1.3 3.7-2.3 1-1 1.9-2.2 2.4-3.5 0.6-1.4 1-2.8 1-4.3 0.1-1.4-0.1-2.9-0.6-4.3-0.5-1.3-1.2-2.6-2.2-3.7-1-1.1-2.2-2-3.5-2.6-1.3-0.7-2.7-1-4.1-1.1-1.5 0-2.9 0.2-4.3 0.7-1.3 0.5-2.6 1.3-3.6 2.3-1.1 1-1.9 2.2-2.5 3.5-0.6 1.4-0.9 2.8-1 4.3-0.1 1.4 0.2 2.9 0.7 4.3 0.4 1.4 1.2 2.6 2.2 3.7 0.9 1.1 2.1 2 3.4 2.7z"/>
			<path id="Layer" fill-rule="evenodd" class="s1" d="m280.1 169l-15 14.2-16.7-9.1-18.4 7.9-13.8-15.4 9-17.6-8-19.3 15-14.1 18.1 9.7 17.9-7.9 13.8 15.4-9.3 18.3zm-31.9-8.3c1.4 0 2.8-0.2 4.2-0.7 1.4-0.5 2.6-1.3 3.6-2.3 1.1-1 1.9-2.2 2.5-3.5 0.6-1.4 1-2.8 1-4.3 0.1-1.4-0.1-2.9-0.6-4.3-0.5-1.3-1.3-2.6-2.3-3.7-0.9-1.1-2.1-2-3.4-2.7-1.3-0.6-2.7-0.9-4.2-1-1.4 0-2.9 0.2-4.2 0.7-1.4 0.5-2.6 1.3-3.7 2.3-1 1-1.9 2.2-2.4 3.5-0.6 1.4-1 2.8-1 4.3-0.1 1.4 0.1 2.9 0.6 4.3 0.5 1.3 1.3 2.6 2.2 3.7 1 1.1 2.2 2 3.5 2.7 1.3 0.6 2.7 0.9 4.2 1z"/>
		</g>
	</g>
</svg>